<?xml version="1.0" encoding="iso-8859-1"?>
<!-- Generator: Adobe Illustrator 19.0.0, SVG Export Plug-In . SVG Version: 6.00 Build 0)  -->
<svg version="1.1" id="Layer_1" xmlns="http://www.w3.org/2000/svg" xmlns:xlink="http://www.w3.org/1999/xlink" x="0px" y="0px"
	 viewBox="0 0 206.266 206.266" style="enable-background:new 0 0 206.266 206.266;" xml:space="preserve">
<g>
	<g>
		<g>
			<path class="jp-icon2" fill="#424242" d="M142.045,79.663h-30.982V33.596c0-1.879-1.321-3.502-3.161-3.885c-1.867-0.376-3.699,0.585-4.447,2.309L64.47,122.006
				c-0.531,1.224-0.407,2.638,0.325,3.754c0.732,1.116,1.979,1.79,3.316,1.79h30.982v46.066c0,1.879,1.321,3.502,3.161,3.885
				c0.271,0.054,0.542,0.081,0.806,0.081c1.557,0,3.002-0.918,3.641-2.39l38.985-89.986c0.531-1.224,0.407-2.638-0.325-3.754
				C144.629,80.336,143.381,79.663,142.045,79.663z M107.026,154.479v-30.897c0-2.192-1.774-3.967-3.967-3.967H74.154l28.975-66.883
				v30.897c0,2.192,1.774,3.967,3.967,3.967h28.906L107.026,154.479z"/>
			<path class="jp-icon2" fill="#424242" d="M103.133,0C46.264,0,0,46.264,0,103.133s46.264,103.133,103.133,103.133s103.133-46.264,103.133-103.133
				S160.003,0,103.133,0z M103.133,198.333c-52.492,0-95.2-42.708-95.2-95.2s42.708-95.2,95.2-95.2s95.2,42.708,95.2,95.2
				S155.626,198.333,103.133,198.333z"/>
		</g>
	</g>
</g>
<g>
</g>
<g>
</g>
<g>
</g>
<g>
</g>
<g>
</g>
<g>
</g>
<g>
</g>
<g>
</g>
<g>
</g>
<g>
</g>
<g>
</g>
<g>
</g>
<g>
</g>
<g>
</g>
<g>
</g>
</svg>
